<svg width="420" height="369" viewBox="0 0 420 369" fill="none" xmlns="http://www.w3.org/2000/svg">
<rect y="280" width="420" height="89" fill="#A5C847"/>
<rect width="420" height="172.174" fill="#A5C847"/>
<path d="M50.68 196.896C56.504 196.896 61.08 197.536 64.408 198.816C67.736 200.032 70.104 202.176 71.512 205.248C72.984 208.256 73.72 212.544 73.72 218.112C73.72 223.68 73.016 228 71.608 231.072C70.264 234.144 67.992 236.288 64.792 237.504C61.656 238.72 57.464 239.328 52.216 239.328C49.336 239.328 46.552 239.232 43.864 239.04C41.24 238.848 38.776 238.592 36.472 238.272C34.232 237.952 32.312 237.632 30.712 237.312C29.112 236.928 27.992 236.608 27.352 236.352L27.64 229.92C31.288 229.92 35.032 229.92 38.872 229.92C42.776 229.92 46.648 229.92 50.488 229.92C53.304 229.856 55.512 229.504 57.112 228.864C58.776 228.224 59.928 227.072 60.568 225.408C61.272 223.68 61.624 221.248 61.624 218.112C61.624 214.976 61.272 212.576 60.568 210.912C59.928 209.184 58.776 208 57.112 207.36C55.512 206.656 53.304 206.304 50.488 206.304C44.856 206.304 40.024 206.336 35.992 206.4C31.96 206.464 29.208 206.56 27.736 206.688L26.392 197.76C28.952 197.504 31.352 197.312 33.592 197.184C35.896 197.056 38.36 196.992 40.984 196.992C43.672 196.928 46.904 196.896 50.68 196.896ZM38.392 197.76V264H26.392V197.76H38.392ZM110.514 197.76C111.538 197.76 112.434 198.048 113.202 198.624C113.97 199.2 114.514 199.968 114.834 200.928L134.898 264H122.61L107.442 212.928C107.186 211.904 106.93 210.88 106.674 209.856C106.418 208.832 106.194 207.84 106.002 206.88H103.314C103.122 207.84 102.898 208.832 102.642 209.856C102.386 210.88 102.098 211.904 101.778 212.928L86.7055 264H74.4175L94.4815 200.928C94.7375 199.968 95.2495 199.2 96.0175 198.624C96.8495 198.048 97.7775 197.76 98.8015 197.76H110.514ZM121.65 235.68V245.088H87.5695V235.68H121.65ZM167.12 196.896C172.624 196.896 177.072 197.472 180.464 198.624C183.92 199.776 186.416 201.76 187.952 204.576C189.552 207.328 190.352 211.232 190.352 216.288C190.352 219.616 189.936 222.464 189.104 224.832C188.336 227.136 187.024 228.992 185.168 230.4C183.376 231.744 180.944 232.608 177.872 232.992V233.472C178.96 233.728 180.08 234.24 181.232 235.008C182.448 235.712 183.536 236.736 184.496 238.08C185.52 239.424 186.288 241.152 186.8 243.264L192.848 264H180.176L174.704 243.552C174 241.248 173.04 239.648 171.824 238.752C170.608 237.792 168.944 237.312 166.832 237.312C162.672 237.312 159.12 237.312 156.176 237.312C153.232 237.248 150.768 237.184 148.784 237.12C146.864 237.056 145.168 237.024 143.696 237.024L143.984 227.904H166.832C169.712 227.84 171.984 227.52 173.648 226.944C175.312 226.304 176.496 225.216 177.2 223.68C177.904 222.08 178.256 219.84 178.256 216.96C178.256 214.144 177.904 211.968 177.2 210.432C176.496 208.896 175.312 207.84 173.648 207.264C171.984 206.624 169.712 206.304 166.832 206.304C161.2 206.304 156.368 206.336 152.336 206.4C148.304 206.464 145.552 206.528 144.08 206.592L142.736 197.76C145.296 197.504 147.696 197.312 149.936 197.184C152.24 197.056 154.736 196.992 157.424 196.992C160.112 196.928 163.344 196.896 167.12 196.896ZM154.544 197.76V264H142.736V197.76H154.544ZM269.241 197.76C272.249 197.76 273.785 199.296 273.849 202.368L276.441 264H265.017L262.713 207.264H260.889L248.505 251.712C247.929 254.336 246.297 255.648 243.609 255.648H235.161C232.409 255.648 230.713 254.336 230.073 251.712L217.689 207.264H215.865L213.753 264H202.329L204.921 202.368C205.049 199.296 206.585 197.76 209.529 197.76H221.529C224.089 197.76 225.689 199.072 226.329 201.696L236.505 237.984C236.953 239.52 237.305 241.056 237.561 242.592C237.881 244.128 238.233 245.664 238.617 247.2H240.057C240.441 245.664 240.793 244.128 241.113 242.592C241.433 241.056 241.785 239.488 242.169 237.888L252.345 201.696C252.921 199.072 254.553 197.76 257.241 197.76H269.241ZM319.201 197.76C320.225 197.76 321.121 198.048 321.889 198.624C322.657 199.2 323.201 199.968 323.521 200.928L343.585 264H331.297L316.129 212.928C315.873 211.904 315.617 210.88 315.361 209.856C315.105 208.832 314.881 207.84 314.689 206.88H312.001C311.809 207.84 311.585 208.832 311.329 209.856C311.073 210.88 310.785 211.904 310.465 212.928L295.393 264H283.105L303.169 200.928C303.425 199.968 303.937 199.2 304.705 198.624C305.537 198.048 306.465 197.76 307.489 197.76H319.201ZM330.337 235.68V245.088H296.257V235.68H330.337ZM375.807 196.896C381.311 196.896 385.759 197.472 389.151 198.624C392.607 199.776 395.103 201.76 396.639 204.576C398.239 207.328 399.039 211.232 399.039 216.288C399.039 219.616 398.623 222.464 397.791 224.832C397.023 227.136 395.711 228.992 393.855 230.4C392.063 231.744 389.631 232.608 386.559 232.992V233.472C387.647 233.728 388.767 234.24 389.919 235.008C391.135 235.712 392.223 236.736 393.183 238.08C394.207 239.424 394.975 241.152 395.487 243.264L401.535 264H388.863L383.391 243.552C382.687 241.248 381.727 239.648 380.511 238.752C379.295 237.792 377.631 237.312 375.519 237.312C371.359 237.312 367.807 237.312 364.863 237.312C361.919 237.248 359.455 237.184 357.471 237.12C355.551 237.056 353.855 237.024 352.383 237.024L352.671 227.904H375.519C378.399 227.84 380.671 227.52 382.335 226.944C383.999 226.304 385.183 225.216 385.887 223.68C386.591 222.08 386.943 219.84 386.943 216.96C386.943 214.144 386.591 211.968 385.887 210.432C385.183 208.896 383.999 207.84 382.335 207.264C380.671 206.624 378.399 206.304 375.519 206.304C369.887 206.304 365.055 206.336 361.023 206.4C356.991 206.464 354.239 206.528 352.767 206.592L351.423 197.76C353.983 197.504 356.383 197.312 358.623 197.184C360.927 197.056 363.423 196.992 366.111 196.992C368.799 196.928 372.031 196.896 375.807 196.896ZM363.231 197.76V264H351.423V197.76H363.231Z" fill="#A5C847"/>
</svg>
