<svg width="100" height="100" viewBox="0 0 100 100" xmlns="http://www.w3.org/2000/svg">
  <path d="M0 0h100v100H0z" fill="none"/>
  <path d="M10 10l10 10M30 10l10 10M50 10l10 10M70 10l10 10M0 20l10 10M20 20l10 10M40 20l10 10M60 20l10 10M80 20l10 10M10 30l10 10M30 30l10 10M50 30l10 10M70 30l10 10M0 40l10 10M20 40l10 10M40 40l10 10M60 40l10 10M80 40l10 10M10 50l10 10M30 50l10 10M50 50l10 10M70 50l10 10M0 60l10 10M20 60l10 10M40 60l10 10M60 60l10 10M80 60l10 10M10 70l10 10M30 70l10 10M50 70l10 10M70 70l10 10M0 80l10 10M20 80l10 10M40 80l10 10M60 80l10 10M80 80l10 10M10 90l10 10M30 90l10 10M50 90l10 10M70 90l10 10" stroke="#a3c64a" stroke-width="1" stroke-opacity="0.2"/>
</svg>